<svg width="69" height="100" viewBox="0 0 69 100" fill="none" xmlns="http://www.w3.org/2000/svg">
<g clip-path="url(#clip0_404_112)">
<path d="M34.5 0C17.9086 0 0 13.1437 0 34.375C0 44.8531 4.18391 53.6688 12.2193 60.35C12.304 60.4531 12.4012 60.5437 12.5078 60.625C18.47 67.0687 18.7711 68.2906 18.8119 71.125C18.8307 72.2469 18.8213 72.5813 18.8119 72.7594L18.7994 73.4125C18.7523 74.825 18.6802 77.1906 21.619 78.0844L47.0015 83.65C47.1176 83.675 47.2274 83.6875 47.3371 83.6875C48.0585 83.6875 48.7109 83.1906 48.8677 82.4562C49.059 81.6125 48.5195 80.7812 47.6727 80.5938L22.4093 75.0594C21.9232 74.9125 21.8824 74.8969 21.9263 73.5031L21.9357 72.9062C21.9357 72.9062 21.9671 72.6625 21.942 71.075C21.8824 67.1062 21.0168 65.1937 14.7001 58.3906C14.581 58.2469 14.4335 58.125 14.2705 58.025C6.88118 51.7688 3.13636 43.8125 3.13636 34.375C3.13636 15.0719 19.4141 3.125 34.5 3.125C49.9184 3.125 65.8636 14.8156 65.8636 34.375C65.8636 46.8063 59.8167 53.6594 54.8299 57.9719C54.6543 58.0531 54.5037 58.1688 54.3689 58.3125C47.9801 65.2 47.1145 67.1125 47.0549 71.0813C47.0549 71.1719 47.0517 71.2812 47.0549 71.4062L47.0517 71.5125C47.0423 71.75 47.0078 71.8812 47.0078 71.9313C46.9043 71.9156 46.644 71.875 46.644 71.875L33.487 68.7906C32.6339 68.5969 31.7996 69.1156 31.602 69.9531C31.4044 70.7969 31.925 71.6344 32.7687 71.8375L45.7658 74.875C45.9383 74.9375 47.5002 75.4437 48.8175 74.5219C49.3946 74.1188 50.0595 73.3281 50.1818 71.8187L50.1912 71.6719C50.1944 71.5687 50.1975 71.4688 50.1975 71.3594C50.1975 71.3312 50.1975 71.3031 50.1944 71.2812L50.1975 71.1344C50.2414 68.3156 50.5331 67.0906 56.4859 60.65C56.5141 60.625 56.5455 60.6063 56.5706 60.5812C64.9321 53.5719 69 45 69 34.375C69 12.8594 51.4583 0 34.5 0Z" fill="white"/>
<path d="M47.0456 92.1878C47.7639 92.1878 48.4131 91.6971 48.5699 90.9659C48.7644 90.1253 48.2375 89.2909 47.3875 89.0971L22.2966 83.4315C21.4466 83.244 20.6124 83.769 20.421 84.6096C20.2266 85.4503 20.7566 86.2878 21.6035 86.4784L46.6944 92.1471C46.8167 92.1753 46.9327 92.1878 47.0456 92.1878Z" fill="white"/>
<path d="M23.8647 92.3562C23.0147 92.1687 22.1836 92.6968 21.9891 93.5374C21.8009 94.3843 22.331 95.2155 23.1778 95.4062L43.5642 99.9624C43.6833 99.9874 43.7962 99.9999 43.9092 99.9999C44.6274 99.9999 45.2766 99.5062 45.4397 98.778C45.6279 97.9312 45.0978 97.0999 44.251 96.9093L23.8647 92.3562Z" fill="white"/>
</g>
<defs>
<clipPath id="clip0_404_112">
<rect width="69" height="100" fill="white"/>
</clipPath>
</defs>
</svg>
